<?xml version="1.0" standalone="no"?><!DOCTYPE svg PUBLIC "-//W3C//DTD SVG 1.1//EN" "http://www.w3.org/Graphics/SVG/1.1/DTD/svg11.dtd"><svg t="1592904337969" class="icon" viewBox="0 0 1218 1024" version="1.1" xmlns="http://www.w3.org/2000/svg" p-id="3707" xmlns:xlink="http://www.w3.org/1999/xlink" width="17.841796875" height="15"><defs><style type="text/css"></style></defs><path d="M550.283 224.488h170.63c-50.334 0-57.73-85.315-109.205-85.315h-170.63c51.474 0 58.87 85.315 109.205 85.315z" fill="#FFB855" p-id="3708"></path><path d="M1003.305 884.826H214.994c-22.523 0-40.952-18.427-40.952-40.951v-663.75c0-22.524 18.428-40.952 40.952-40.952h226.084c51.474 0 58.87 85.315 109.205 85.315h453.022c22.523 0 40.951 18.427 40.951 40.95v578.437c0 22.524-18.427 40.951-40.951 40.951z" fill="#FFDC69" p-id="3709"></path><path d="M550.283 224.488h85.315c-50.334 0-57.73-85.315-109.205-85.315h-85.315c51.474 0 58.87 85.315 109.205 85.315z m56.022 103.058a38.25 38.25 0 1 0 76.5 0 38.25 38.25 0 1 0-76.5 0z" fill="#FFC85A" p-id="3710"></path><path d="M978.284 365.937H725.742c-5.628 0-10.233-4.605-10.233-10.233v-56.317c0-5.629 4.605-10.233 10.233-10.233h252.542c5.628 0 10.233 4.604 10.233 10.233v56.317c0 5.628-4.605 10.233-10.233 10.233z" fill="#FFF0B9" p-id="3711"></path></svg>