<?xml version="1.0" standalone="no"?><!DOCTYPE svg PUBLIC "-//W3C//DTD SVG 1.1//EN" "http://www.w3.org/Graphics/SVG/1.1/DTD/svg11.dtd"><svg t="1592904139695" class="icon" viewBox="0 0 1024 1024" version="1.1" xmlns="http://www.w3.org/2000/svg" p-id="2169" xmlns:xlink="http://www.w3.org/1999/xlink" width="15" height="15"><defs><style type="text/css"></style></defs><path d="M0 0m170.666667 0l682.666666 0q170.666667 0 170.666667 170.666667l0 682.666666q0 170.666667-170.666667 170.666667l-682.666666 0q-170.666667 0-170.666667-170.666667l0-682.666666q0-170.666667 170.666667-170.666667Z" fill="#FFFFFF" p-id="2170"></path><path d="M217.002667 211.925333l48.213333 546.048c1.408 15.701333 12.373333 28.928 27.605333 33.152l136.490667 38.186667c53.418667 14.933333 109.994667 14.976 163.413333 0l137.173334-38.314667c15.189333-4.266667 26.197333-17.493333 27.562666-33.194666l48.426667-545.877334A37.930667 37.930667 0 0 0 768.085333 170.666667H254.762667a37.930667 37.930667 0 0 0-37.76 41.258666z m439.765333 159.36H444.586667a35.413333 35.413333 0 0 0-35.285334 38.485334l0.341334 3.925333c1.706667 19.584 18.133333 34.56 37.802666 34.56h195.84a37.930667 37.930667 0 0 1 37.802667 41.301333l-14.506667 163.584a37.930667 37.930667 0 0 1-27.605333 33.152l-86.954667 24.32a151.722667 151.722667 0 0 1-81.749333 0l-86.784-24.32a37.930667 37.930667 0 0 1-27.562667-33.152l-4.821333-54.698666a34.304 34.304 0 0 1 34.133333-37.333334H392.533333c17.066667 0 31.317333 13.013333 32.853334 30.037334l0.341333 3.712c1.408 15.786667 12.501333 29.056 27.818667 33.237333 40.704 15.658667 40.789333 15.616 57.856 15.573333 13.397333-0.042667 33.365333-4.693333 59.904-13.952a37.930667 37.930667 0 0 0 25.258666-32.426666l2.858667-32.426667a37.930667 37.930667 0 0 0-37.76-41.301333H379.136A37.930667 37.930667 0 0 1 341.333333 488.96l-13.397333-151.637333a37.930667 37.930667 0 0 1 37.76-41.258667h294.698667a34.56 34.56 0 0 1 34.432 37.546667l-0.256 3.029333a37.930667 37.930667 0 0 1-37.802667 34.602667z" fill="#FF6D48" p-id="2171"></path></svg>