<?xml version="1.0" standalone="no"?><!DOCTYPE svg PUBLIC "-//W3C//DTD SVG 1.1//EN" "http://www.w3.org/Graphics/SVG/1.1/DTD/svg11.dtd"><svg t="1592904412551" class="icon" viewBox="0 0 1024 1024" version="1.1" xmlns="http://www.w3.org/2000/svg" p-id="6114" xmlns:xlink="http://www.w3.org/1999/xlink" width="15" height="15"><defs><style type="text/css"></style></defs><path d="M768 204.8a51.2 51.2 0 0 1 51.2 51.2v563.2a51.2 51.2 0 0 1-51.2 51.2H204.8a51.2 51.2 0 0 1-51.2-51.2V256a51.2 51.2 0 0 1 51.2-51.2h563.2z m-120.4224 235.52l-3.84 0.512a20.48 20.48 0 0 0-7.3216 3.328L486.912 551.0656l-59.136-23.9616-3.84-1.1264a20.3264 20.3264 0 0 0-3.9424-0.3584l-3.84 0.4096a20.48 20.48 0 0 0-14.6944 11.6224l-61.7472 136.5504-1.3312 3.6864a20.48 20.48 0 0 0 19.968 25.1904h353.792l3.9936-0.3584a20.48 20.48 0 0 0 15.7184-25.7536l-63.8976-221.8496-1.536-3.84a20.48 20.48 0 0 0-15.104-10.752l-3.7888-0.2048z m-7.8848 45.5168l52.1728 181.5552-309.8112-0.1536 46.0288-101.5296 63.6928 25.9584 147.9168-105.8304zM364.1344 358.4l-6.1952 0.3584a56.7808 56.7808 0 0 0 6.144 113.152l6.1952-0.3072A56.7808 56.7808 0 0 0 364.1344 358.4z m0 35.84a20.9408 20.9408 0 1 1 0 41.8816 20.9408 20.9408 0 0 1 0-41.8816z" fill="#0084FF" p-id="6115"></path><path d="M870.4 102.4a51.2 51.2 0 0 1 51.2 51.2v563.2a51.2 51.2 0 0 1-51.2 51.2V204.8a51.2 51.2 0 0 0-45.2096-50.8416L819.2 153.6H256a51.2 51.2 0 0 1 51.2-51.2h563.2z" fill="#A1D1FF" p-id="6116"></path></svg>