<?xml version="1.0" standalone="no"?><!DOCTYPE svg PUBLIC "-//W3C//DTD SVG 1.1//EN" "http://www.w3.org/Graphics/SVG/1.1/DTD/svg11.dtd"><svg t="1592904373328" class="icon" viewBox="0 0 1024 1024" version="1.1" xmlns="http://www.w3.org/2000/svg" p-id="5343" xmlns:xlink="http://www.w3.org/1999/xlink" width="15" height="15"><defs><style type="text/css"></style></defs><path d="M64 64v896h896v-896h-896z m487.594667 698.794667c0 87.210667-51.2 127.018667-125.781334 127.018666-67.413333 0-106.410667-34.816-126.421333-77.013333l68.608-41.386667c13.226667 23.381333 25.173333 43.178667 54.186667 43.178667 27.605333 0 45.226667-10.794667 45.226666-52.992v-286.208h84.181334v287.402667z m199.210666 127.018666c-78.208 0-128.810667-37.205333-153.386666-86.016l68.565333-39.594666c18.005333 29.397333 41.6 51.2 83.029333 51.2 34.773333 0 57.173333-17.408 57.173334-41.6 0-28.8-22.784-38.997333-61.397334-56.021334l-20.992-8.96c-60.8-25.813333-100.992-58.453333-100.992-127.018666 0-63.189333 48.213333-111.189333 123.178667-111.189334 53.632 0 92.032 18.602667 119.594667 67.413334l-65.578667 41.984c-14.378667-25.813333-29.994667-36.010667-54.186667-36.010667-24.618667 0-40.192 15.616-40.192 36.010667 0 25.173333 15.573333 35.413333 51.797334 51.2l20.992 8.96c71.594667 30.634667 111.786667 62.037333 111.786666 132.437333 0 75.605333-59.605333 117.205333-139.392 117.205333z" fill="#FFCA26" p-id="5344"></path></svg>